<?xml version="1.0" encoding="iso-8859-1"?>
<!-- Generator: Adobe Illustrator 17.1.0, SVG Export Plug-In . SVG Version: 6.00 Build 0)  -->
<!DOCTYPE svg PUBLIC "-//W3C//DTD SVG 1.1//EN" "http://www.w3.org/Graphics/SVG/1.1/DTD/svg11.dtd">
<svg version="1.1" id="Capa_1" xmlns="http://www.w3.org/2000/svg" xmlns:xlink="http://www.w3.org/1999/xlink" x="0px" y="0px"
	 viewBox="0 0 294 294" style="fill:darkgray; enable-background:new 0 0 294 294;" xml:space="preserve">
<path d="M279,132h-18.988c-6.718-50.886-47.345-91.294-98.345-98.012V15c0-8.284-6.716-15-15-15s-15,6.716-15,15v18.988
	c-51,6.718-90.961,47.126-97.679,98.012H15c-8.284,0-15,6.716-15,15s6.716,15,15,15h18.988
	c6.718,50.886,46.679,91.294,97.679,98.012V279c0,8.284,6.716,15,15,15s15-6.716,15-15v-18.988
	c51-6.718,91.627-47.126,98.345-98.012H279c8.284,0,15-6.716,15-15S287.284,132,279,132z M161.667,229.632V213
	c0-8.284-6.716-15-15-15s-15,6.716-15,15v16.632c-34-6.214-61.085-33.321-67.299-67.632H81c8.284,0,15-6.716,15-15s-6.716-15-15-15
	H64.368c6.214-34.31,33.299-61.418,67.299-67.632V81c0,8.284,6.716,15,15,15s15-6.716,15-15V64.368
	c35,6.214,61.751,33.322,67.965,67.632H213c-8.284,0-15,6.716-15,15s6.716,15,15,15h16.632
	C223.418,196.31,196.667,223.418,161.667,229.632z"/>
<g>
</g>
<g>
</g>
<g>
</g>
<g>
</g>
<g>
</g>
<g>
</g>
<g>
</g>
<g>
</g>
<g>
</g>
<g>
</g>
<g>
</g>
<g>
</g>
<g>
</g>
<g>
</g>
<g>
</g>
</svg>
